# xmcd
#
# Track frame offsets: 
#        150
#        17902
#        40810
#        55917
#        71852
#        91810
#        113570
#        127290
#        148660
#        166860
#        186927
#        207580
#        227007
#        245850
#
# Disc length: 3529 seconds
#
# Revision: 0
# Processed by: cddbd v1.5.2PL0 Copyright (c) Steve Scherf et al.
# Submitted via: ExactAudioCopyFreeDBPlugin 1.0
#
DISCID=d10dc70e
DTITLE=Khanh Ly - Khanh Ly TCS CD1
DYEAR=1900
DGENRE=
TTITLE0=Ha trnag
TTITLE1=Tuoi da buon
TTITLE2=Toi ru em ngu
TTITLE3=Ngau nhien
TTITLE4=Ru em tung ngon xuan nong
TTITLE5=Phuc am buon
TTITLE6=Cuoi cung cho mot tinh yeu
TTITLE7=Chieu 1 minh qua pho
TTITLE8=Nay em co nho
TTITLE9=Nhin nhung mua thu di
TTITLE10=Biet dau nguon cuoi
TTITLE11=Nghe nhung tan phai
TTITLE12=Phoi pha
TTITLE13=Rung xua da khep
EXTD=
EXTT0=
EXTT1=
EXTT2=
EXTT3=
EXTT4=
EXTT5=
EXTT6=
EXTT7=
EXTT8=
EXTT9=
EXTT10=
EXTT11=
EXTT12=
EXTT13=
PLAYORDER=
